<svg height="512" viewBox="0 0 64 64" width="512" xmlns="http://www.w3.org/2000/svg"><g id="working-chair-desk-monitor-online"><path d="m47 33h14v4h-14z" fill="#806749"/><path d="m3 33h14v4h-14z" fill="#806749"/><path d="m3 33h58v2h-58z" fill="#5f4d37"/><path d="m58 37 3 24h-2l-7-24z" fill="#a78966"/><rect fill="#46f8ff" height="22" rx="2" width="38" x="13" y="3"/><path d="m51 5v18a2.006 2.006 0 0 1 -2 2h-4a2.006 2.006 0 0 0 2-2v-18a2.006 2.006 0 0 0 -2-2h4a2.006 2.006 0 0 1 2 2z" fill="#00d7df"/><path d="m47 31v10h-4v-12h2a2.006 2.006 0 0 1 2 2z" fill="#898890"/><path d="m47 31v10h-2v-10a2.006 2.006 0 0 0 -2-2h2a2.006 2.006 0 0 1 2 2z" fill="#57565c"/><circle cx="42" cy="59" fill="#57565c" r="2"/><path d="m43 23v21h-22v-21a2.006 2.006 0 0 1 2-2h18a2.006 2.006 0 0 1 2 2z" fill="#c6c5ca"/><path d="m43 23v21h-4v-21a2.006 2.006 0 0 0 -2-2h4a2.006 2.006 0 0 1 2 2z" fill="#898890"/><path d="m39 18v3h-14v-3a7 7 0 1 1 14 0z" fill="#ffcd00"/><path d="m39 18v3h-4v-3a7 7 0 0 0 -5-6.71 7 7 0 0 1 9 6.71z" fill="#ddb200"/><path d="m34 44v8h-2-2v-8z" fill="#898890"/><circle cx="32" cy="59" fill="#57565c" r="2"/><circle cx="22" cy="59" fill="#57565c" r="2"/><path d="m44 59a2 2 0 0 1 -3 1.73 2 2 0 0 0 0-3.46 2 2 0 0 1 3 1.73z" fill="#3e3d42"/><path d="m32 44h2v8h-2z" fill="#57565c"/><path d="m34 59a2 2 0 0 1 -3 1.73 2 2 0 0 0 0-3.46 2 2 0 0 1 3 1.73z" fill="#3e3d42"/><path d="m24 59a2 2 0 0 1 -3 1.73 2 2 0 0 0 0-3.46 2 2 0 0 1 3 1.73z" fill="#3e3d42"/><path d="m21 29v12h-4v-10a2.006 2.006 0 0 1 2-2z" fill="#898890"/><path d="m12 37-7 24h-2l3-24z" fill="#a78966"/><path d="m62 37v-4a1 1 0 0 0 -1-1h-13v-1a3.009 3.009 0 0 0 -3-3h-1v-2h5a3.009 3.009 0 0 0 3-3v-18a3.009 3.009 0 0 0 -3-3h-34a3.009 3.009 0 0 0 -3 3v18a3.009 3.009 0 0 0 3 3h5v2h-1a3.009 3.009 0 0 0 -3 3v1h-13a1 1 0 0 0 -1 1v4a1 1 0 0 0 1 1h1.87l-2.86 22.88a.968.968 0 0 0 .24.78.981.981 0 0 0 .75.34h2a1 1 0 0 0 .96-.72l6.79-23.28h3.25v3a1 1 0 0 0 1 1h3v2a1 1 0 0 0 1 1h8v6h-7a1 1 0 0 0 -1 1v4.18a3 3 0 1 0 2 0v-3.18h8v3.18a3 3 0 1 0 2 0v-3.18h8v3.18a3 3 0 1 0 2 0v-4.18a1 1 0 0 0 -1-1h-7v-6h8a1 1 0 0 0 1-1v-2h3a1 1 0 0 0 1-1v-3h3.25l6.79 23.28a1 1 0 0 0 .96.72h2a.981.981 0 0 0 .75-.34.968.968 0 0 0 .24-.78l-2.86-22.88h1.87a1 1 0 0 0 1-1zm-57.75 23h-.12l2.75-22h3.79zm11.75-24h-12v-2h12zm4 4h-2v-9a1 1 0 0 1 1-1h1zm2 20a1 1 0 1 1 1-1 1 1 0 0 1 -1 1zm20-2a1 1 0 1 1 -1 1 1 1 0 0 1 1-1zm-10 2a1 1 0 1 1 1-1 1 1 0 0 1 -1 1zm1-9h-2v-6h2zm9-8h-20v-20a1 1 0 0 1 1-1h18a1 1 0 0 1 1 1zm-16-23v-2a6 6 0 0 1 12 0v2zm15 0h-1v-2a8 8 0 0 0 -16 0v2h-1a3.009 3.009 0 0 0 -3 3v1h-5a1 1 0 0 1 -1-1v-18a1 1 0 0 1 1-1h34a1 1 0 0 1 1 1v18a1 1 0 0 1 -1 1h-5v-1a3.009 3.009 0 0 0 -3-3zm5 20h-2v-10h1a1 1 0 0 1 1 1zm13.87 20h-.12l-6.42-22h3.79zm.13-24h-12v-2h12z"/><path d="m46 11h2v-4a1 1 0 0 0 -1-1h-4v2h3z"/><path d="m46 13h2v2h-2z"/></g></svg>